<svg width="44" height="44" viewBox="0 0 44 44" fill="none" xmlns="http://www.w3.org/2000/svg">
<path opacity="0.4" d="M38.2752 22.5888C41.0198 25.2161 41.0198 29.784 38.2752 32.4114C34.4915 36.0333 28.608 40.3334 22.0003 40.3334C15.3926 40.3334 9.50912 36.0333 5.72547 32.4114C2.98083 29.784 2.98083 25.2161 5.72547 22.5888C9.50912 18.9669 15.3926 14.6667 22.0003 14.6667C28.608 14.6667 34.4915 18.9669 38.2752 22.5888Z" fill="#07232F"/>
<circle cx="22" cy="27.5" r="5.5" fill="#07232F"/>
<path fill-rule="evenodd" clip-rule="evenodd" d="M22 2.29175C22.7594 2.29175 23.375 2.90736 23.375 3.66675V7.33341C23.375 8.09281 22.7594 8.70841 22 8.70841C21.2406 8.70841 20.625 8.09281 20.625 7.33341V3.66675C20.625 2.90736 21.2406 2.29175 22 2.29175Z" fill="#07232F"/>
<path fill-rule="evenodd" clip-rule="evenodd" d="M4.52773 8.19448C5.0647 7.65751 5.9353 7.65751 6.47227 8.19448L9.22227 10.9445C9.75924 11.4814 9.75924 12.352 9.22227 12.889C8.6853 13.426 7.8147 13.426 7.27773 12.889L4.52773 10.139C3.99076 9.60205 3.99076 8.73145 4.52773 8.19448ZM39.4723 8.19448C40.0092 8.73145 40.0092 9.60205 39.4723 10.139L36.7223 12.889C36.1853 13.426 35.3147 13.426 34.7777 12.889C34.2408 12.352 34.2408 11.4814 34.7777 10.9445L37.5277 8.19448C38.0647 7.65751 38.9353 7.65751 39.4723 8.19448Z" fill="#07232F"/>
</svg>
