<svg width="34" height="34" viewBox="0 0 34 34" fill="none" xmlns="http://www.w3.org/2000/svg">
<path opacity="0.5" d="M8.86824 30.3002H8.5C7.16435 30.3002 6.49653 30.3002 6.0816 29.8853C5.66667 29.4703 5.66667 28.8025 5.66667 27.4669V25.8916C5.66667 25.1571 5.66667 24.7898 5.85534 24.4618C6.04401 24.1338 6.32864 23.9683 6.89789 23.6372C10.6456 21.4575 15.968 20.2304 19.5203 22.3492C19.759 22.4915 19.9737 22.6634 20.1571 22.8694C20.9477 23.7575 20.8901 25.0978 19.9789 25.8931C19.7865 26.0611 19.5814 26.1884 19.3748 26.2327C19.5446 26.213 19.7073 26.1905 19.8625 26.1657C21.1536 25.9598 22.2375 25.2698 23.2297 24.5203L25.7899 22.5863C26.6924 21.9045 28.032 21.9044 28.9347 22.586C29.7474 23.1996 29.9959 24.21 29.4821 25.0336C28.883 25.994 28.0388 27.2226 27.2282 27.9734C26.4165 28.7252 25.208 29.3964 24.2214 29.8726C23.1286 30.4001 21.9212 30.704 20.6932 30.9028C18.2025 31.306 15.6068 31.2444 13.1415 30.7365C11.7478 30.4494 10.3003 30.3002 8.86824 30.3002Z" fill="#07232F"/>
<path d="M9.32986 3.66318C8.81026 4.18278 8.616 4.90066 8.54337 6.02052C10.2694 5.99751 11.6642 4.60267 11.6872 2.87668C10.5673 2.94931 9.84946 3.14358 9.32986 3.66318Z" fill="#07232F"/>
<path d="M24.6701 3.66318C24.1505 3.14358 23.4327 2.94931 22.3128 2.87668C22.3358 4.60266 23.7306 5.99751 25.4566 6.02052C25.384 4.90066 25.1897 4.18278 24.6701 3.66318Z" fill="#07232F"/>
<path d="M24.6701 13.3368C24.1505 13.8564 23.4327 14.0506 22.3128 14.1233C22.3358 12.3973 23.7307 11.0024 25.4566 10.9794C25.384 12.0993 25.1897 12.8172 24.6701 13.3368Z" fill="#07232F"/>
<path d="M9.32986 13.3368C9.84946 13.8564 10.5673 14.0506 11.6872 14.1233C11.6642 12.3973 10.2694 11.0025 8.54337 10.9794C8.616 12.0993 8.81026 12.8172 9.32986 13.3368Z" fill="#07232F"/>
<path fill-rule="evenodd" clip-rule="evenodd" d="M8.5 8.14581C11.434 8.14581 13.8125 5.76733 13.8125 2.83331H20.1875C20.1875 5.76733 22.566 8.14581 25.5 8.14581V8.85415C22.566 8.85415 20.1875 11.2326 20.1875 14.1666H13.8125C13.8125 11.2326 11.434 8.85415 8.5 8.85415V8.14581ZM17 9.91665C17.7824 9.91665 18.4167 9.28238 18.4167 8.49998C18.4167 7.71758 17.7824 7.08331 17 7.08331C16.2176 7.08331 15.5833 7.71758 15.5833 8.49998C15.5833 9.28238 16.2176 9.91665 17 9.91665Z" fill="#07232F"/>
</svg>
