<svg width="120" height="38" viewBox="0 0 120 38" fill="none" xmlns="http://www.w3.org/2000/svg">
<path fill-rule="evenodd" clip-rule="evenodd" d="M14.6338 13.2357L8.47496 4.2602C7.87895 3.39162 8.18417 2.19691 9.12376 1.72062L12.0733 0.225535C13.0596 -0.274398 14.256 0.259065 14.5433 1.32684L16.8735 9.98875C17.1278 10.934 17.9848 11.591 18.9637 11.591C19.9425 11.591 20.7996 10.934 21.0539 9.98875L23.3841 1.32684C23.6713 0.259065 24.8678 -0.274398 25.854 0.225535L28.8036 1.72062C29.7432 2.19691 30.0484 3.39162 29.4524 4.2602L23.2935 13.2357C22.3142 14.6629 20.6945 15.5158 18.9637 15.5158C17.2328 15.5158 15.6131 14.6629 14.6338 13.2357ZM24.728 14.6702L33.7035 8.51132C34.5721 7.9153 35.7668 8.22054 36.2431 9.16012L37.7382 12.1097C38.2381 13.0959 37.7046 14.2924 36.6368 14.5796L27.9749 16.9098C27.0297 17.1641 26.3727 18.0212 26.3727 19C26.3727 19.9789 27.0297 20.8359 27.9749 21.0902L36.6368 23.4204C37.7046 23.7077 38.2381 24.9041 37.7382 25.8904L36.2431 28.84C35.7668 29.7795 34.5721 30.0848 33.7035 29.4887L24.728 23.3299C23.3009 22.3506 22.4479 20.7309 22.4479 19C22.4479 17.2692 23.3009 15.6495 24.728 14.6702ZM8.47496 33.7399L14.6338 24.7644C15.6131 23.3372 17.2328 22.4843 18.9637 22.4843C20.6945 22.4843 22.3142 23.3372 23.2935 24.7644L29.4524 33.7399C30.0484 34.6085 29.7432 35.8032 28.8036 36.2794L25.854 37.7745C24.8678 38.2745 23.6713 37.741 23.3841 36.6732L21.0539 28.0113C20.7996 27.066 19.9425 26.4091 18.9637 26.4091C17.9848 26.4091 17.1278 27.066 16.8735 28.0113L14.5433 36.6732C14.256 37.741 13.0596 38.2745 12.0733 37.7745L9.12376 36.2794C8.18417 35.8032 7.87895 34.6085 8.47496 33.7399ZM13.1993 14.6702L4.22385 8.51132C3.35527 7.9153 2.16054 8.22054 1.68426 9.16012L0.189156 12.1097C-0.31078 13.0959 0.222706 14.2924 1.29048 14.5796L9.9524 16.9098C10.8977 17.1641 11.5546 18.0212 11.5546 19C11.5546 19.9789 10.8977 20.8359 9.9524 21.0902L1.29048 23.4204C0.222706 23.7077 -0.31078 24.9041 0.189156 25.8904L1.68426 28.84C2.16054 29.7795 3.35526 30.0848 4.22385 29.4887L13.1993 23.3299C14.6265 22.3506 15.4794 20.7309 15.4794 19C15.4794 17.2692 14.6265 15.6495 13.1993 14.6702ZM18.9637 21.3229C20.2465 21.3229 21.2865 20.2829 21.2865 19C21.2865 17.7171 20.2465 16.6772 18.9637 16.6772C17.6808 16.6772 16.6408 17.7171 16.6408 19C16.6408 20.2829 17.6808 21.3229 18.9637 21.3229Z" fill="#FFEC9E"/>
<path d="M95.0973 34.6685V29.5869V24.5247H97.1532L97.1144 28.0159H97.4635C97.5799 27.1884 97.7609 26.5031 98.0066 25.96C98.2523 25.404 98.5949 24.9902 99.0345 24.7187C99.4742 24.4342 100.017 24.292 100.664 24.292C100.793 24.292 100.929 24.2985 101.071 24.3114C101.226 24.3243 101.394 24.3566 101.575 24.4084L101.478 26.988C101.271 26.9104 101.058 26.8586 100.838 26.8328C100.631 26.794 100.437 26.7746 100.256 26.7746C99.7522 26.7746 99.3126 26.9039 98.9376 27.1625C98.5755 27.4211 98.2781 27.7896 98.0454 28.268C97.8256 28.7335 97.6575 29.2895 97.5411 29.936V34.6685H95.0973Z" fill="#07232F"/>
<path d="M89.6632 34.9208C88.8486 34.9208 88.118 34.8044 87.4715 34.5717C86.8379 34.3389 86.3013 34.0027 85.8617 33.5631C85.4221 33.1105 85.0859 32.5675 84.8531 31.9339C84.6204 31.3003 84.504 30.5827 84.504 29.781C84.504 28.9793 84.6139 28.2423 84.8338 27.5699C85.0665 26.8975 85.3962 26.3157 85.8229 25.8243C86.2496 25.333 86.7668 24.9515 87.3745 24.68C87.9952 24.4085 88.6999 24.2727 89.4886 24.2727C90.2257 24.2727 90.8851 24.3955 91.467 24.6412C92.0488 24.8869 92.5402 25.2554 92.941 25.7468C93.3419 26.2252 93.6393 26.8264 93.8332 27.5505C94.0272 28.2617 94.0918 29.0892 94.0272 30.0331L86.0944 30.0913V28.6755L92.6113 28.6173L91.7579 29.4125C91.8355 28.6755 91.7773 28.0742 91.5833 27.6087C91.3894 27.1303 91.1114 26.7812 90.7493 26.5614C90.3873 26.3286 89.9735 26.2122 89.508 26.2122C88.9779 26.2122 88.5124 26.3545 88.1116 26.6389C87.7107 26.9105 87.4004 27.3113 87.1806 27.8415C86.9737 28.3587 86.8703 28.9922 86.8703 29.7422C86.8703 30.8671 87.1159 31.7076 87.6073 32.2636C88.1116 32.8196 88.7969 33.0976 89.6632 33.0976C90.0511 33.0976 90.3744 33.0523 90.633 32.9618C90.9045 32.8584 91.1308 32.7291 91.3118 32.5739C91.4928 32.4058 91.6351 32.2183 91.7385 32.0115C91.8549 31.8046 91.9454 31.5848 92.01 31.352L94.1435 31.8369C94.0401 32.3153 93.872 32.742 93.6393 33.117C93.4065 33.492 93.1026 33.8152 92.7277 34.0868C92.3656 34.3583 91.9325 34.5652 91.4282 34.7074C90.9239 34.8497 90.3356 34.9208 89.6632 34.9208Z" fill="#07232F"/>
<path d="M82.3363 34.9013C81.2631 34.9013 80.4744 34.6168 79.9701 34.0479C79.4658 33.466 79.2137 32.5674 79.2137 31.3519V26.4837H77.7202L77.759 24.5442H78.7482C79.1231 24.5442 79.4011 24.486 79.5822 24.3696C79.7632 24.2532 79.8731 24.0463 79.9119 23.749L80.1446 22.2749H81.5605V24.5248H84.2371V26.5613H81.5605V31.255C81.5605 31.7334 81.6704 32.0825 81.8902 32.3023C82.123 32.5221 82.4656 32.632 82.9182 32.632C83.1639 32.632 83.4031 32.6062 83.6358 32.5545C83.8815 32.4898 84.1078 32.3864 84.3146 32.2441V34.5716C83.9138 34.7009 83.5453 34.7849 83.2091 34.8237C82.8859 34.8754 82.5949 34.9013 82.3363 34.9013Z" fill="#07232F"/>
<path d="M67.9612 34.6686V28.4815V24.5248H69.9977L69.9395 27.6281H70.2886C70.4697 26.8652 70.7089 26.2381 71.0063 25.7468C71.3166 25.2554 71.711 24.8869 72.1894 24.6412C72.6678 24.3955 73.2238 24.2727 73.8574 24.2727C75.0082 24.2727 75.881 24.68 76.4758 25.4946C77.0835 26.3092 77.3873 27.5699 77.3873 29.2767V34.6686H74.9241V29.5289C74.9241 28.4298 74.756 27.6281 74.4198 27.1238C74.0966 26.6066 73.6117 26.348 72.9652 26.348C72.4221 26.348 71.9631 26.5226 71.5881 26.8717C71.2131 27.2079 70.9222 27.6604 70.7153 28.2294C70.5214 28.7854 70.4179 29.3996 70.405 30.0719V34.6686H67.9612Z" fill="#07232F"/>
<path d="M62.5271 34.9208C61.7125 34.9208 60.9819 34.8044 60.3354 34.5717C59.7018 34.3389 59.1652 34.0027 58.7256 33.5631C58.286 33.1105 57.9498 32.5675 57.717 31.9339C57.4843 31.3003 57.3679 30.5827 57.3679 29.781C57.3679 28.9793 57.4778 28.2423 57.6976 27.5699C57.9304 26.8975 58.2601 26.3157 58.6868 25.8243C59.1135 25.333 59.6307 24.9515 60.2384 24.68C60.8591 24.4085 61.5638 24.2727 62.3525 24.2727C63.0896 24.2727 63.749 24.3955 64.3309 24.6412C64.9127 24.8869 65.4041 25.2554 65.8049 25.7468C66.2057 26.2252 66.5031 26.8264 66.6971 27.5505C66.8911 28.2617 66.9557 29.0892 66.8911 30.0331L58.9583 30.0913V28.6755L65.4752 28.6173L64.6218 29.4125C64.6994 28.6755 64.6412 28.0742 64.4472 27.6087C64.2533 27.1303 63.9753 26.7812 63.6132 26.5614C63.2512 26.3286 62.8374 26.2122 62.3719 26.2122C61.8418 26.2122 61.3763 26.3545 60.9755 26.6389C60.5746 26.9105 60.2643 27.3113 60.0445 27.8415C59.8376 28.3587 59.7342 28.9922 59.7342 29.7422C59.7342 30.8671 59.9798 31.7076 60.4712 32.2636C60.9755 32.8196 61.6608 33.0976 62.5271 33.0976C62.915 33.0976 63.2383 33.0523 63.4969 32.9618C63.7684 32.8584 63.9947 32.7291 64.1757 32.5739C64.3567 32.4058 64.499 32.2183 64.6024 32.0115C64.7188 31.8046 64.8093 31.5848 64.8739 31.352L67.0074 31.8369C66.904 32.3153 66.7359 32.742 66.5031 33.117C66.2704 33.492 65.9665 33.8152 65.5916 34.0868C65.2295 34.3583 64.7964 34.5652 64.2921 34.7074C63.7878 34.8497 63.1995 34.9208 62.5271 34.9208Z" fill="#07232F"/>
<path d="M51.8634 34.9207C50.8936 34.9207 50.0273 34.7849 49.2644 34.5134C48.5015 34.2289 47.855 33.8152 47.3249 33.2721C46.7947 32.7161 46.3874 32.0308 46.103 31.2162C45.8185 30.4016 45.6763 29.4706 45.6763 28.4233C45.6763 27.3371 45.8185 26.3738 46.103 25.5333C46.4004 24.6929 46.8141 23.9817 47.3443 23.3999C47.8744 22.8051 48.508 22.359 49.245 22.0616C49.982 21.7642 50.8031 21.6155 51.7082 21.6155C52.4065 21.6155 53.053 21.706 53.6478 21.887C54.2426 22.068 54.7533 22.3396 55.18 22.7016C55.6196 23.0507 55.9623 23.4774 56.208 23.9817C56.4536 24.4731 56.5829 25.0355 56.5959 25.6691L54.3072 26.2704C54.3201 25.6885 54.1973 25.2036 53.9387 24.8157C53.6801 24.4278 53.3439 24.1369 52.9301 23.9429C52.5293 23.749 52.0961 23.652 51.6307 23.652C51.2169 23.652 50.8031 23.736 50.3893 23.9041C49.9885 24.0722 49.6265 24.3373 49.3032 24.6993C48.9799 25.0614 48.7213 25.5398 48.5274 26.1346C48.3334 26.7165 48.2365 27.4341 48.2365 28.2875C48.2365 29.3736 48.3916 30.2529 48.7019 30.9253C49.0252 31.5976 49.4648 32.0954 50.0208 32.4187C50.5898 32.729 51.2298 32.8842 51.941 32.8842C52.6651 32.8842 53.2405 32.742 53.6672 32.4575C54.0939 32.1601 54.4042 31.7722 54.5981 31.2938C54.7921 30.8024 54.902 30.2723 54.9279 29.7034L57.0808 30.0719C57.0678 30.7442 56.9644 31.3778 56.7704 31.9726C56.5765 32.5674 56.2726 33.0846 55.8588 33.5242C55.458 33.9639 54.9279 34.3065 54.2684 34.5522C53.609 34.7979 52.8073 34.9207 51.8634 34.9207Z" fill="#07232F"/>
<path d="M115.52 17.3436C114.705 17.3436 113.974 17.2272 113.328 16.9945C112.694 16.7618 112.158 16.4256 111.718 15.9859C111.279 15.5334 110.942 14.9903 110.71 14.3567C110.477 13.7231 110.36 13.0055 110.36 12.2038C110.36 11.4022 110.47 10.6651 110.69 9.99277C110.923 9.3204 111.253 8.73854 111.679 8.24719C112.106 7.75584 112.623 7.37439 113.231 7.10286C113.852 6.83132 114.556 6.69556 115.345 6.69556C116.082 6.69556 116.742 6.81839 117.323 7.06407C117.905 7.30974 118.397 7.67826 118.797 8.16961C119.198 8.64802 119.496 9.24928 119.69 9.97338C119.884 10.6845 119.948 11.5121 119.884 12.456L111.951 12.5142V11.0983L118.468 11.0401L117.614 11.8353C117.692 11.0983 117.634 10.4971 117.44 10.0316C117.246 9.55314 116.968 9.20403 116.606 8.98421C116.244 8.75147 115.83 8.63509 115.364 8.63509C114.834 8.63509 114.369 8.77733 113.968 9.06179C113.567 9.33333 113.257 9.73417 113.037 10.2643C112.83 10.7815 112.727 11.4151 112.727 12.1651C112.727 13.29 112.972 14.1305 113.464 14.6865C113.968 15.2425 114.653 15.5205 115.52 15.5205C115.908 15.5205 116.231 15.4752 116.489 15.3847C116.761 15.2812 116.987 15.1519 117.168 14.9968C117.349 14.8287 117.492 14.6412 117.595 14.4343C117.711 14.2274 117.802 14.0076 117.866 13.7749L120 14.2598C119.897 14.7382 119.728 15.1649 119.496 15.5398C119.263 15.9148 118.959 16.2381 118.584 16.5096C118.222 16.7812 117.789 16.988 117.285 17.1303C116.78 17.2725 116.192 17.3436 115.52 17.3436Z" fill="#07232F"/>
<path d="M105.811 17.3436C104.932 17.3436 104.169 17.2143 103.522 16.9557C102.889 16.6971 102.359 16.3351 101.932 15.8696C101.518 15.3912 101.208 14.8352 101.001 14.2016C100.794 13.568 100.691 12.8827 100.691 12.1457C100.691 11.3569 100.794 10.6328 101.001 9.97338C101.221 9.31393 101.544 8.73854 101.971 8.24719C102.397 7.75584 102.921 7.37439 103.542 7.10286C104.175 6.83132 104.899 6.69556 105.714 6.69556C106.529 6.69556 107.233 6.83132 107.828 7.10286C108.436 7.37439 108.927 7.75584 109.302 8.24719C109.677 8.72561 109.929 9.28807 110.059 9.93458L107.77 10.6522C107.744 10.2643 107.641 9.92165 107.46 9.62426C107.279 9.31393 107.033 9.07472 106.723 8.90663C106.412 8.73854 106.044 8.65449 105.617 8.65449C105.203 8.65449 104.841 8.73854 104.531 8.90663C104.233 9.06179 103.981 9.28807 103.774 9.58547C103.58 9.88286 103.425 10.2449 103.309 10.6716C103.205 11.0854 103.154 11.5509 103.154 12.0681C103.154 12.7792 103.251 13.387 103.445 13.8912C103.639 14.3955 103.936 14.7899 104.337 15.0744C104.738 15.3459 105.236 15.4817 105.83 15.4817C106.36 15.4817 106.787 15.3847 107.11 15.1907C107.447 14.9838 107.699 14.7188 107.867 14.3955C108.048 14.0723 108.158 13.7167 108.197 13.3288L110.369 13.8137C110.291 14.3438 110.143 14.8222 109.923 15.2489C109.703 15.6756 109.399 16.0506 109.011 16.3739C108.636 16.6842 108.184 16.9234 107.653 17.0915C107.123 17.2596 106.509 17.3436 105.811 17.3436Z" fill="#07232F"/>
<path d="M93.5885 17.3436C93.0325 17.3436 92.5347 17.2402 92.0951 17.0333C91.6554 16.8135 91.3063 16.4902 91.0477 16.0635C90.802 15.6368 90.6792 15.1067 90.6792 14.4731C90.6792 13.943 90.7762 13.4904 90.9701 13.1154C91.177 12.7404 91.4809 12.4366 91.8817 12.2038C92.2826 11.9582 92.7804 11.7578 93.3752 11.6026C93.9699 11.4345 94.6682 11.2923 95.4699 11.1759C95.9095 11.1112 96.2651 11.0466 96.5366 10.9819C96.8211 10.9173 97.028 10.8203 97.1573 10.691C97.2866 10.5488 97.3512 10.3419 97.3512 10.0704C97.3512 9.66951 97.209 9.32686 96.9245 9.0424C96.653 8.745 96.2069 8.5963 95.5862 8.5963C95.2113 8.5963 94.8492 8.66095 94.5001 8.79026C94.1639 8.91956 93.873 9.12644 93.6273 9.41091C93.3816 9.68244 93.2135 10.0445 93.123 10.4971L90.9313 9.81821C91.0736 9.301 91.2805 8.85491 91.552 8.47993C91.8235 8.09202 92.1597 7.7623 92.5605 7.49077C92.9614 7.21923 93.4204 7.01881 93.9376 6.88951C94.4548 6.76021 95.0238 6.69556 95.6444 6.69556C96.5883 6.69556 97.3641 6.85072 97.9719 7.16105C98.5796 7.45844 99.0321 7.9304 99.3295 8.57691C99.6269 9.21049 99.7756 10.0316 99.7756 11.0401V12.9409C99.7756 13.3805 99.7821 13.8395 99.795 14.3179C99.8209 14.7834 99.8467 15.2554 99.8726 15.7338C99.9114 16.1993 99.9567 16.6519 100.008 17.0915H97.8167C97.765 16.7294 97.7197 16.3415 97.6809 15.9278C97.6421 15.514 97.6098 15.0938 97.584 14.6671H97.2736C97.0926 15.1584 96.834 15.611 96.4978 16.0247C96.1616 16.4256 95.7479 16.7488 95.2565 16.9945C94.7781 17.2272 94.2221 17.3436 93.5885 17.3436ZM94.5583 15.5398C94.8169 15.5398 95.0755 15.4946 95.3341 15.4041C95.6056 15.3136 95.8707 15.1778 96.1293 14.9968C96.3879 14.8158 96.6271 14.5959 96.8469 14.3373C97.0667 14.0658 97.2542 13.749 97.4094 13.387L97.3706 11.6608L97.8361 11.7384C97.6163 11.9194 97.3447 12.0616 97.0215 12.1651C96.6982 12.2685 96.3556 12.3461 95.9935 12.3978C95.6444 12.4495 95.2888 12.5142 94.9268 12.5918C94.5777 12.6564 94.2609 12.7469 93.9764 12.8633C93.6919 12.9667 93.4657 13.1219 93.2976 13.3288C93.1295 13.5227 93.0454 13.7943 93.0454 14.1434C93.0454 14.583 93.1877 14.9257 93.4721 15.1713C93.7566 15.417 94.1186 15.5398 94.5583 15.5398Z" fill="#07232F"/>
<path d="M84.3745 17.0914V12.0098V6.94759H86.4304L86.3916 10.4388H86.7407C86.8571 9.61122 87.0381 8.92592 87.2838 8.38285C87.5295 7.82685 87.8721 7.41308 88.3118 7.14154C88.7514 6.85708 89.2945 6.71484 89.941 6.71484C90.0703 6.71484 90.2061 6.72131 90.3483 6.73424C90.5035 6.74717 90.6715 6.77949 90.8526 6.83122L90.7556 9.4108C90.5487 9.33322 90.3354 9.2815 90.1155 9.25564C89.9087 9.21685 89.7147 9.19745 89.5337 9.19745C89.0294 9.19745 88.5898 9.32676 88.2148 9.58536C87.8527 9.84396 87.5554 10.2125 87.3226 10.6909C87.1028 11.1564 86.9347 11.7124 86.8183 12.3589V17.0914H84.3745Z" fill="#07232F"/>
<path d="M79.1779 17.3437C78.5314 17.3437 77.9754 17.2208 77.5099 16.9751C77.0444 16.7165 76.6629 16.3545 76.3655 15.889C76.0811 15.4235 75.8742 14.8675 75.7449 14.221H75.3958L75.4152 17.0915H73.3593V12.1069V3.3208H75.8031V6.59862C75.8031 6.90895 75.7837 7.24513 75.7449 7.60718C75.7061 7.96923 75.6544 8.3442 75.5897 8.73211C75.5251 9.10709 75.454 9.48853 75.3764 9.87644H75.7837C75.9518 9.25579 76.1716 8.71272 76.4431 8.24723C76.7276 7.76881 77.0961 7.39383 77.5487 7.1223C78.0012 6.85076 78.5572 6.71499 79.2167 6.71499C80.0571 6.71499 80.7812 6.94127 81.3889 7.39383C82.0096 7.83346 82.488 8.45411 82.8242 9.25579C83.1604 10.0445 83.3285 10.982 83.3285 12.0681C83.3285 13.1284 83.1604 14.0529 82.8242 14.8417C82.5009 15.6304 82.029 16.2446 81.4083 16.6842C80.8006 17.1238 80.0571 17.3437 79.1779 17.3437ZM78.4021 15.3265C78.8805 15.3265 79.3007 15.1908 79.6628 14.9192C80.0248 14.6477 80.2963 14.2663 80.4774 13.7749C80.6713 13.2836 80.7683 12.7017 80.7683 12.0293C80.7683 11.3828 80.6778 10.8139 80.4968 10.3225C80.3157 9.83118 80.0507 9.44328 79.7015 9.15881C79.3524 8.87434 78.9257 8.73211 78.4214 8.73211C78.0853 8.73211 77.7749 8.80323 77.4905 8.94546C77.206 9.07476 76.9603 9.25579 76.7534 9.48853C76.5466 9.70835 76.372 9.95402 76.2298 10.2256C76.0875 10.4971 75.9776 10.7816 75.9 11.079C75.8354 11.3634 75.8031 11.6285 75.8031 11.8742V12.2039C75.8031 12.5271 75.8548 12.8763 75.9582 13.2512C76.0617 13.6133 76.2233 13.9495 76.4431 14.2598C76.6629 14.5701 76.9345 14.8287 77.2577 15.0356C77.581 15.2296 77.9624 15.3265 78.4021 15.3265Z" fill="#07232F"/>
<path d="M56.5103 17.0915V10.6716V6.9477H58.508L58.4498 10.051H58.7989C58.9799 9.301 59.2127 8.68035 59.4971 8.189C59.7945 7.68472 60.1566 7.30974 60.5833 7.06407C61.01 6.81839 61.5013 6.69556 62.0573 6.69556C62.678 6.69556 63.1887 6.83779 63.5896 7.12226C63.9904 7.40672 64.2943 7.80109 64.5011 8.30537C64.721 8.79672 64.8567 9.37212 64.9085 10.0316H65.2188C65.3869 9.28161 65.6261 8.66095 65.9364 8.16961C66.2597 7.67826 66.6476 7.30974 67.1001 7.06407C67.5656 6.81839 68.0764 6.69556 68.6324 6.69556C69.1754 6.69556 69.6539 6.80546 70.0676 7.02528C70.4814 7.24509 70.824 7.56835 71.0956 7.99505C71.38 8.40882 71.5869 8.93249 71.7162 9.56607C71.8585 10.1997 71.9296 10.9302 71.9296 11.7578V17.0915H69.4664V12.0681C69.4664 11.344 69.4017 10.7427 69.2724 10.2643C69.156 9.78589 68.9686 9.4303 68.7099 9.19756C68.4643 8.95189 68.141 8.82905 67.7402 8.82905C67.2876 8.82905 66.8932 8.97775 66.5571 9.27514C66.2209 9.57254 65.9558 9.99277 65.7618 10.5358C65.5679 11.066 65.4515 11.6737 65.4127 12.359V17.0915H63.0077V12.1844C63.0077 11.4345 62.9431 10.8138 62.8138 10.3225C62.6844 9.81821 62.4905 9.44324 62.2319 9.19756C61.9733 8.95189 61.6436 8.82905 61.2427 8.82905C60.7772 8.82905 60.3764 8.98421 60.0402 9.29454C59.717 9.60486 59.4584 10.0316 59.2644 10.5746C59.0834 11.1177 58.9799 11.7254 58.9541 12.3978V17.0915H56.5103Z" fill="#07232F"/>
<path d="M46.1611 17.0915V4.29053H48.6243V17.0915H46.1611ZM47.7516 17.0915V15.0744H55.7231V17.0915H47.7516ZM47.7516 11.525V9.66305H54.7727V11.525H47.7516ZM47.7516 6.30765V4.29053H55.6843V6.30765H47.7516Z" fill="#07232F"/>
</svg>
