<svg width="44" height="44" viewBox="0 0 44 44" fill="none" xmlns="http://www.w3.org/2000/svg">
<path opacity="0.4" d="M19.0217 4.99045L9.85904 9.06275C7.20873 10.2407 5.45975 12.8785 5.6284 15.7739C6.28773 27.0933 9.60248 32.0766 18.2157 37.9078C20.4975 39.4526 23.5052 39.4564 25.7852 37.9091C34.425 32.0461 37.6211 26.9924 38.3383 15.8131C38.5253 12.8986 36.7735 10.2327 34.1048 9.0466L24.9784 4.99045C23.0823 4.14771 20.9179 4.14772 19.0217 4.99045Z" fill="#07232F"/>
<path fill-rule="evenodd" clip-rule="evenodd" d="M28.4055 15.4652C28.977 15.9653 29.0349 16.834 28.5348 17.4055L23.2733 23.4186C22.1427 24.7107 20.1953 24.8837 18.8546 23.8112L15.6411 21.2404C15.0481 20.766 14.952 19.9007 15.4264 19.3077C15.9007 18.7147 16.766 18.6186 17.359 19.093L20.5725 21.6638C20.764 21.817 21.0422 21.7923 21.2038 21.6077L26.4653 15.5946C26.9653 15.0231 27.834 14.9652 28.4055 15.4652Z" fill="#07232F"/>
</svg>
