<svg width="923" height="769" viewBox="0 0 923 769" fill="none" xmlns="http://www.w3.org/2000/svg">
<path d="M896.511 284.366C833.695 392.56 747.067 460.088 619.862 458.317C492.657 456.547 324.874 385.479 216.44 415.766C108.006 446.054 58.9208 577.697 -16.705 664.015C-58.2795 711.467 -107.875 745.221 -163.415 768.821L-325.716 388.219C-304.881 377.351 -284.022 366.549 -262.924 356.42C-204.231 328.242 -143.684 305.27 -82.2997 284.651C-20.9151 264.033 41.3071 245.767 115.357 260.719C189.408 275.671 275.286 323.84 349.993 340.638C424.7 357.435 488.237 342.86 545.596 310.937C602.955 279.013 654.137 229.741 700.786 167.738C742.688 112.043 780.933 46.0761 822.184 0.350281L922.313 235.158C914.203 252.181 905.607 268.699 896.511 284.366Z" fill="url(#paint0_linear_1_22)" fill-opacity="0.2"/>
<path d="M619.866 457.996C746.922 459.764 833.457 392.33 896.233 284.204C905.3 268.587 913.872 252.12 921.961 235.151L822.086 0.939156C801.596 23.7149 781.841 51.4771 761.994 80.4872C757.54 86.999 753.08 93.5738 748.607 100.169C733.047 123.11 717.32 146.296 701.043 167.931C654.376 229.958 603.163 279.265 545.752 311.217C488.335 343.173 424.718 357.769 349.923 340.951C313.611 332.787 274.668 317.218 235.756 301.662C234.607 301.203 233.458 300.744 232.31 300.285C192.239 284.271 152.285 268.503 115.294 261.033C41.3337 246.1 -20.8173 264.339 -82.1974 284.956C-143.574 305.572 -204.108 328.539 -262.785 356.709C-283.789 366.793 -304.556 377.544 -325.304 388.366L-163.246 768.4C-107.864 744.822 -58.4122 711.131 -16.9466 663.803C1.94596 642.239 19.1844 617.841 36.1142 592.89C40.1087 587.002 44.0861 581.084 48.064 575.165C60.9424 556.003 73.8258 536.833 87.3066 518.688C122.596 471.188 162.03 430.63 216.354 415.457C270.655 400.289 339.784 410.505 411.174 424.705C424.595 427.375 438.096 430.185 451.595 432.995C509.939 445.14 568.246 457.278 619.866 457.996Z" stroke="url(#paint1_linear_1_22)" stroke-opacity="0.2" stroke-width="0.642458" stroke-linecap="round" stroke-linejoin="round"/>
<defs>
<linearGradient id="paint0_linear_1_22" x1="-131.329" y1="1069.66" x2="625.24" y2="523.187" gradientUnits="userSpaceOnUse">
<stop stop-color="#387465"/>
<stop offset="1" stop-color="white" stop-opacity="0"/>
</linearGradient>
<linearGradient id="paint1_linear_1_22" x1="-209.126" y1="676.366" x2="598.601" y2="115.984" gradientUnits="userSpaceOnUse">
<stop stop-color="#387465"/>
<stop offset="1" stop-color="white" stop-opacity="0"/>
</linearGradient>
</defs>
</svg>
