<svg width="44" height="44" viewBox="0 0 44 44" fill="none" xmlns="http://www.w3.org/2000/svg">
<path opacity="0.5" d="M3.66699 26.7268V15.7125C3.66699 14.1802 4.45167 12.7794 5.69388 12.0941L9.45192 10.0209C10.4702 9.4592 11.593 9.16675 12.7315 9.16675H15.8137C18.0888 9.16675 20.2098 10.3291 21.5858 12.2668L18.0303 17.1705C17.1593 18.3718 17.2462 20.1035 18.2321 21.1913C19.3007 22.3703 21.0333 22.3703 22.1019 21.1913L24.6964 18.3287L28.8963 26.8241C30.0454 29.1484 28.8947 32.0439 26.5667 32.686L20.0953 34.471C17.763 35.1144 15.304 34.897 13.0943 33.8521L5.88929 30.4452C4.54111 29.8077 3.66699 28.3451 3.66699 26.7268Z" fill="#07232F"/>
<path d="M40.3337 27.1822V15.7125C40.3337 14.1802 39.549 12.7794 38.3068 12.0941L34.5487 10.0209C33.5305 9.4592 32.4076 9.16675 31.2692 9.16675H27.3583C25.1305 9.16675 23.0235 10.284 21.6319 12.2034L18.0303 17.1705C17.1593 18.3718 17.2462 20.1035 18.2321 21.1913C19.3007 22.3703 21.0333 22.3703 22.1019 21.1913L24.6964 18.3287L28.8963 26.8241C29.6276 28.3033 29.4274 30.0139 28.5852 31.2277H36.667C38.692 31.2277 40.3337 29.4165 40.3337 27.1822Z" fill="#07232F"/>
</svg>
