<svg width="34" height="34" viewBox="0 0 34 34" fill="none" xmlns="http://www.w3.org/2000/svg">
<path opacity="0.5" d="M2.83334 13.1189C2.83334 18.4279 8.52753 24.0428 12.6958 27.4419C14.5828 28.9806 15.5263 29.75 17 29.75C18.4738 29.75 19.4173 28.9806 21.3042 27.4419C25.4725 24.0429 31.1667 18.428 31.1667 13.1189C31.1667 4.74486 23.3748 0.938735 17 7.78992C10.6252 0.938735 2.83334 4.74512 2.83334 13.1189Z" fill="#07232F"/>
<path d="M14.2987 15.224C14.4255 15.0428 14.5308 14.8924 14.6246 14.7636C14.704 14.9017 14.7925 15.0626 14.8991 15.2564L17.322 19.6616C17.5572 20.0896 17.7879 20.5093 18.0196 20.8139C18.2674 21.1397 18.7033 21.5864 19.4018 21.5995C20.1003 21.6126 20.5526 21.1827 20.8125 20.8663C21.0554 20.5707 21.3017 20.1599 21.5529 19.7411L21.6313 19.6103C21.9442 19.089 22.1411 18.763 22.3154 18.5276C22.476 18.3106 22.5688 18.2398 22.638 18.2006C22.7072 18.1614 22.8156 18.1183 23.0843 18.0922C23.3759 18.0639 23.7566 18.0627 24.3646 18.0627H25.5C26.0868 18.0627 26.5625 17.587 26.5625 17.0002C26.5625 16.4134 26.0868 15.9377 25.5 15.9377L24.3188 15.9377C23.7704 15.9377 23.2853 15.9377 22.8787 15.9772C22.4379 16.02 22.0089 16.1148 21.591 16.3515C21.1731 16.5881 20.8711 16.9072 20.6075 17.2631C20.3645 17.5914 20.115 18.0073 19.8328 18.4776L19.8328 18.4777L19.7655 18.5899C19.6426 18.7947 19.5401 18.9653 19.4485 19.1117C19.3624 18.9619 19.2665 18.7876 19.1514 18.5784L16.7297 14.1752L16.7297 14.1752C16.5114 13.778 16.2938 13.3823 16.0732 13.0921C15.8321 12.7752 15.4189 12.3561 14.7565 12.3204C14.0942 12.2846 13.6382 12.6568 13.3644 12.9459C13.1138 13.2106 12.855 13.5806 12.5951 13.952L12.1569 14.5781C11.8351 15.0378 11.6333 15.3243 11.4587 15.5308C11.2979 15.721 11.2086 15.7833 11.1426 15.8176C11.0767 15.852 10.9744 15.8895 10.7264 15.9121C10.457 15.9367 10.1067 15.9377 9.54555 15.9377H8.5C7.9132 15.9377 7.4375 16.4134 7.4375 17.0002C7.4375 17.587 7.9132 18.0627 8.5 18.0627L9.58817 18.0627H9.58818C10.0939 18.0627 10.5422 18.0628 10.9197 18.0283C11.3292 17.9909 11.7286 17.9083 12.124 17.7025C12.5193 17.4966 12.816 17.2168 13.0815 16.9027C13.3262 16.6132 13.5833 16.246 13.8733 15.8316L14.2987 15.224Z" fill="#07232F"/>
</svg>
