<svg width="34" height="34" viewBox="0 0 34 34" fill="none" xmlns="http://www.w3.org/2000/svg">
<path d="M21.9583 10.625C21.9583 13.3634 19.7384 15.5833 17 15.5833C14.2616 15.5833 12.0417 13.3634 12.0417 10.625C12.0417 7.88658 14.2616 5.66666 17 5.66666C19.7384 5.66666 21.9583 7.88658 21.9583 10.625Z" fill="#07232F"/>
<path opacity="0.4" d="M27.625 10.625C27.625 12.581 26.0393 14.1667 24.0833 14.1667C22.1273 14.1667 20.5417 12.581 20.5417 10.625C20.5417 8.669 22.1273 7.08334 24.0833 7.08334C26.0393 7.08334 27.625 8.669 27.625 10.625Z" fill="#07232F"/>
<path opacity="0.4" d="M6.375 10.625C6.375 12.581 7.96066 14.1667 9.91667 14.1667C11.8727 14.1667 13.4583 12.581 13.4583 10.625C13.4583 8.669 11.8727 7.08334 9.91667 7.08334C7.96066 7.08334 6.375 8.669 6.375 10.625Z" fill="#07232F"/>
<path d="M25.5 23.375C25.5 26.1134 21.6944 28.3333 17 28.3333C12.3056 28.3333 8.5 26.1134 8.5 23.375C8.5 20.6366 12.3056 18.4167 17 18.4167C21.6944 18.4167 25.5 20.6366 25.5 23.375Z" fill="#07232F"/>
<path opacity="0.4" d="M31.1667 23.375C31.1667 25.331 28.6296 26.9167 25.5 26.9167C22.3704 26.9167 19.8333 25.331 19.8333 23.375C19.8333 21.419 22.3704 19.8333 25.5 19.8333C28.6296 19.8333 31.1667 21.419 31.1667 23.375Z" fill="#07232F"/>
<path opacity="0.4" d="M2.83333 23.375C2.83333 25.331 5.37039 26.9167 8.5 26.9167C11.6296 26.9167 14.1667 25.331 14.1667 23.375C14.1667 21.419 11.6296 19.8333 8.5 19.8333C5.37039 19.8333 2.83333 21.419 2.83333 23.375Z" fill="#07232F"/>
</svg>
