<svg width="200" height="200" viewBox="0 0 200 200" fill="none" xmlns="http://www.w3.org/2000/svg">
<path fill-rule="evenodd" clip-rule="evenodd" d="M77.1676 69.6032L44.6905 22.2732C41.5476 17.693 43.1571 11.393 48.1118 8.88144L63.6654 0.997479C68.8662 -1.63879 75.1755 1.17429 76.6902 6.80494L88.9779 52.4813C90.3189 57.466 94.8382 60.9303 100 60.9303C105.162 60.9303 109.681 57.466 111.022 52.4813L123.31 6.80494C124.825 1.17429 131.134 -1.63879 136.335 0.997479L151.888 8.88144C156.843 11.393 158.452 17.693 155.309 22.2732L122.832 69.6032C117.668 77.129 109.127 81.6267 100 81.6267C90.8728 81.6267 82.3317 77.129 77.1676 69.6032ZM130.397 77.1675L177.727 44.6904C182.307 41.5475 188.607 43.1571 191.118 48.1117L199.003 63.6654C201.639 68.8662 198.826 75.1755 193.195 76.6902L147.519 88.9779C142.534 90.3188 139.07 94.8383 139.07 100C139.07 105.162 142.534 109.681 147.519 111.022L193.195 123.31C198.826 124.825 201.639 131.134 199.003 136.335L191.118 151.888C188.607 156.843 182.307 158.453 177.727 155.31L130.397 122.832C122.871 117.668 118.373 109.127 118.373 100C118.373 90.8728 122.871 82.3317 130.397 77.1675ZM44.6905 177.727L77.1676 130.397C82.3317 122.871 90.8728 118.373 100 118.373C109.127 118.373 117.668 122.871 122.832 130.397L155.309 177.727C158.452 182.307 156.843 188.607 151.888 191.119L136.335 199.003C131.134 201.639 124.825 198.826 123.31 193.195L111.022 147.519C109.681 142.534 105.162 139.07 100 139.07C94.8382 139.07 90.3189 142.534 88.9779 147.519L76.6902 193.195C75.1755 198.826 68.8662 201.639 63.6654 199.003L48.1118 191.119C43.1571 188.607 41.5476 182.307 44.6905 177.727ZM69.6031 77.1675L22.2734 44.6904C17.6931 41.5475 11.393 43.1571 8.88154 48.1117L0.997466 63.6654C-1.63882 68.8662 1.17438 75.1755 6.80503 76.6902L52.4814 88.9779C57.466 90.3188 60.9303 94.8383 60.9303 100C60.9303 105.162 57.466 109.681 52.4814 111.022L6.80503 123.31C1.17438 124.825 -1.63882 131.134 0.997466 136.335L8.88153 151.888C11.393 156.843 17.6931 158.453 22.2734 155.31L69.6031 122.832C77.129 117.668 81.6267 109.127 81.6267 100C81.6267 90.8728 77.129 82.3317 69.6031 77.1675ZM100 112.249C106.765 112.249 112.249 106.765 112.249 100C112.249 93.235 106.765 87.7511 100 87.7511C93.2351 87.7511 87.7511 93.235 87.7511 100C87.7511 106.765 93.2351 112.249 100 112.249Z" fill="#FFEC9E"/>
</svg>
