<svg width="1096" height="705" viewBox="0 0 1096 705" fill="none" xmlns="http://www.w3.org/2000/svg">
<path d="M117.436 32.2213C233.624 -14.1709 343.461 -13.8684 442.478 66.0061C541.495 145.881 629.692 305.327 733.715 348.391C837.737 391.455 957.587 318.137 1070.36 296.865C1132.35 285.17 1192.21 289.205 1250.48 304.898L1143.39 704.562C1120.29 700.261 1097.21 695.893 1074.35 690.847C1010.78 676.811 948.956 657.535 887.926 635.889C826.896 614.244 766.659 590.23 717.607 532.777C668.555 475.323 630.689 384.43 582.258 325.119C533.828 265.807 474.833 238.078 409.996 227.813C345.159 217.548 274.48 224.747 199.515 244.762C132.176 262.741 61.3782 291.06 0.703114 301.596L66.7708 55.0278C83.6556 46.6353 100.612 38.9388 117.436 32.2213Z" fill="url(#paint0_linear_1_21)" fill-opacity="0.2"/>
<path d="M442.277 66.2561C343.376 -13.5246 233.67 -13.8435 117.555 32.5196C100.784 39.2162 83.8789 46.8867 67.0437 55.2509L1.14369 301.193C31.3203 295.91 63.9961 286.25 97.5133 275.664C105.037 273.287 112.603 270.865 120.192 268.434C146.591 259.98 173.273 251.436 199.432 244.451C274.426 224.429 345.152 217.221 410.046 227.496C474.949 237.771 534.019 265.534 582.507 324.915C606.047 353.744 627.089 390.023 648.115 426.273C648.736 427.343 649.357 428.413 649.977 429.483C671.632 466.807 693.347 503.867 717.851 532.568C766.843 589.952 827.008 613.943 888.034 635.587C949.056 657.229 1010.87 676.502 1074.42 690.534C1097.17 695.557 1120.15 699.908 1143.16 704.192L1250.09 305.125C1191.96 289.512 1132.25 285.517 1070.42 297.18C1042.25 302.495 1013.63 311.06 984.908 320.252C978.133 322.42 971.351 324.624 964.569 326.828C942.611 333.963 920.645 341.101 898.84 347.064C841.762 362.674 785.706 370.262 733.592 348.688C681.499 327.122 633.398 276.433 585.976 221.212C577.061 210.831 568.17 200.289 559.28 189.75C520.857 144.195 482.458 98.6697 442.277 66.2561Z" stroke="url(#paint1_linear_1_21)" stroke-opacity="0.2" stroke-width="0.642458" stroke-linecap="round" stroke-linejoin="round"/>
<defs>
<linearGradient id="paint0_linear_1_21" x1="1410.84" y1="48.344" x2="478.268" y2="11.6357" gradientUnits="userSpaceOnUse">
<stop stop-color="#387465"/>
<stop offset="1" stop-color="white" stop-opacity="0"/>
</linearGradient>
<linearGradient id="paint1_linear_1_21" x1="1229.41" y1="405.862" x2="248.003" y2="348.536" gradientUnits="userSpaceOnUse">
<stop stop-color="#387465"/>
<stop offset="1" stop-color="white" stop-opacity="0"/>
</linearGradient>
</defs>
</svg>
